<?xml version="1.0" encoding="utf-8"?>
<!-- Generator: Adobe Illustrator 19.2.0, SVG Export Plug-In . SVG Version: 6.00 Build 0)  -->
<svg version="1.1" id="Layer_1" xmlns="http://www.w3.org/2000/svg" xmlns:xlink="http://www.w3.org/1999/xlink" x="0px" y="0px"
	 viewBox="0 0 200 100" style="enable-background:new 0 0 200 100;" xml:space="preserve">
<style type="text/css">
	.st0{fill:#FCFCFC;}
	.st1{fill:#F4A506;}
</style>
<g>
	<g>
		<path class="st0" d="M77.1,32.1c-1.5-2.1-4-3.1-6.3-3.1c-3.2,0-6.2,1.7-7.6,5.2c-1.5-3.6-3.7-5.2-7.1-5.2c-3.4,0-5.9,1.7-7.2,5.2
			h-0.1v-3.7c0-0.5-0.5-0.9-1-0.9h-5.1c-0.6,0-1.1,0.4-1.1,1v28.1c0,0.5,0.5,0.9,1,0.9h5.5c0.6,0,1.1-0.5,1.1-1V43.8
			c0-3.3-0.2-7.8,3.8-7.8c3.9,0,3.4,4.6,3.4,7.8v14.9c0,0.5,0.4,1,1,1h5.5c0.6,0,1.1-0.5,1.1-1V43.8c0-1.6-0.1-4,0.5-5.4
			c0.6-1.4,2-2.3,3.3-2.3c1.6,0,2.8,0.5,3.2,2.4c0.3,1.1,0.2,4.1,0.2,5.3v14.9c0,0.5,0.4,1,1,1h5.5c0.6,0,1.1-0.5,1.1-1l0-17.8
			C78.5,37.9,78.9,34.5,77.1,32.1z"/>
	</g>
</g>
<g>
	<g>
		<path class="st0" d="M149.4,29c-7.9,0-12.3,6.8-12.3,15.6c0,8.7,4.3,15.7,12.3,15.7c7.7,0,12.5-6.8,12.5-15.4
			C161.9,36,157.5,29,149.4,29z M149.4,54.5c-4.3,0-4.3-7.3-4.3-10.8c0-3.4,0.3-8.9,4.3-8.9c1.7,0,3,0.8,3.6,2.7
			c0.7,2.2,0.8,5.1,0.8,7.5C153.9,48.6,153.7,54.5,149.4,54.5z"/>
	</g>
</g>
<g>
	<g>
		<path class="st0" d="M109.2,54.5c-1-1.4-2.1-2.5-2.1-5.1v-8.5c0-3.6,0.2-6.9-2.4-9.4c-2.1-2-5.6-2.7-8.3-2.7
			c-5.2,0-11,1.9-12.3,8.4c-0.1,0.7,0.4,1,0.8,1.1l5.3,0.6c0.5,0,0.9-0.5,1-1c0.4-2.2,2.3-3.3,4.4-3.3c1.1,0,2.4,0.4,3.1,1.4
			c0.8,1.1,0.7,2.7,0.7,4l0,0.7c-3.2,0.4-7.3,0.6-10.3,1.9c-3.4,1.5-5.8,4.5-5.8,9c0,5.7,3.6,8.5,8.2,8.5c3.9,0,6-0.9,9-4
			c1,1.4,1.3,2.1,3.1,3.7c0.4,0.2,0.9,0.2,1.3-0.1l0,0c1.1-1,3.1-2.7,4.2-3.6C109.6,55.6,109.6,55,109.2,54.5z M99.5,46.3
			c0,2.1,0.1,3.9-1,5.8c-0.9,1.5-2.3,2.5-3.8,2.5c-2.1,0-3.3-1.6-3.3-4c0-4.7,4.2-5.5,8.2-5.5C99.5,45.1,99.5,46.3,99.5,46.3z"/>
	</g>
</g>
<g>
	<g>
		<path class="st0" d="M187.1,32.3c-1.5-2.4-4-3.3-6.4-3.3c-3.8,0-5.9,1.8-7.5,5.7h-0.1v-4.3c-0.1-0.4-0.5-0.8-1-0.8h-5.1
			c-0.6,0-1,0.4-1.1,0.9l0,28.1c0,0.5,0.4,1,1,1h5.5c0.6,0,1.1-0.5,1.1-1V43.5c0-1.9,0.1-3.6,0.9-5.3c0.6-1.4,1.8-2.2,3.2-2.2
			c3.8,0,3.4,4.5,3.4,7.6v15.3c0,0.5,0.5,0.8,1,0.9h5.5c0.5,0,1-0.4,1.1-0.9V41.1C188.6,38.4,188.6,34.6,187.1,32.3z"/>
	</g>
</g>
<g>
	<g>
		<path class="st0" d="M133.5,52.1c-3.1-1.8-6.8-2.3-10.3-2.2l9.3-13.3c0.9-1.2,1.4-2,1.4-2.5v-3.4c0-0.6-0.5-1-1-1h-18
			c-0.6,0-1,0.4-1,1v4c0,0.6,0.5,1,1,1h9.4l-10.8,15.5c-0.7,1-0.7,2.1-0.7,2.8V58c0,0.6,0.7,1.3,1.3,0.9c6.1-3.3,13.5-2.9,19,0
			c0.7,0.4,1.3-0.3,1.3-0.9v-4.3C134.4,53.1,134.2,52.5,133.5,52.1z"/>
	</g>
</g>
<g>
	<g>
		<path class="st1" d="M130,62.3c-1.1-1.4-10.8-2.6-16.7,1.5c-0.9,0.6-0.8,1.5,0.3,1.4c3.3-0.4,10.7-1.3,12,0.4
			c1.3,1.7-1.5,8.6-2.7,11.7c-0.4,0.9,0.4,1.3,1.3,0.6C129.7,73.3,131.1,63.7,130,62.3z"/>
	</g>
</g>
<g>
	<g>
		<path class="st1" d="M119.8,68.1c-11.5,4.9-24.1,7.3-35.5,7.3c-16.9,0-33.3-4.6-46.5-12.3c-1.2-0.7-2,0.5-1.1,1.4
			C49,75.5,65.3,82.1,83.3,82.1c12.8,0,27.8-4,38.1-11.6C123,69.2,121.6,67.3,119.8,68.1z"/>
	</g>
</g>
<g>
	<g>
		<path class="st0" d="M37.4,54.5c-1-1.4-2.1-2.5-2.1-5.1v-8.5c0-3.6,0.3-6.9-2.4-9.4c-2.1-2-5.6-2.7-8.3-2.7
			c-5.2,0-11,1.9-12.3,8.4c-0.1,0.7,0.4,1,0.8,1.1l5.3,0.6c0.5,0,0.9-0.5,0.9-1c0.4-2.2,2.3-3.3,4.4-3.3c1.1,0,2.4,0.4,3.1,1.4
			c0.8,1.1,0.7,2.7,0.7,4v0.7c-3.2,0.4-7.3,0.6-10.3,1.9c-3.4,1.5-5.8,4.5-5.8,9c0,5.7,3.6,8.5,8.2,8.5c3.9,0,6-0.9,9-4
			c1,1.4,1.3,2.1,3.1,3.7c0.4,0.2,0.9,0.2,1.3-0.1l0,0c1.1-1,3.1-2.7,4.2-3.6C37.8,55.6,37.7,55,37.4,54.5z M27.6,46.3
			c0,2.1,0.1,3.9-1,5.8c-0.9,1.5-2.2,2.5-3.8,2.5c-2.1,0-3.3-1.6-3.3-4c0-4.7,4.2-5.5,8.1-5.5V46.3z"/>
	</g>
</g>
</svg>
