<?xml version="1.0" encoding="utf-8"?>
<!-- Generator: Adobe Illustrator 19.2.0, SVG Export Plug-In . SVG Version: 6.00 Build 0)  -->
<svg version="1.1" id="Layer_1" xmlns="http://www.w3.org/2000/svg" xmlns:xlink="http://www.w3.org/1999/xlink" x="0px" y="0px"
	 viewBox="0 0 200 200" style="enable-background:new 0 0 200 200;" xml:space="preserve">
<style type="text/css">
	.st0{fill:#056CD3;}
	.st1{opacity:0.99;fill:#020202;}
</style>
<g>
	<path class="st0" d="M169.6,69.8c0,0,15.7-28.2,2.6-44.9c0,0-5.5-12.9-40.2-6.1c0,0-17,6.2-20.9,8c0,0-62.9-4.7-80.4,59.7
		c0,0,33.1-31.6,37-29.5s-6.5,7.8-6.5,7.8s-34.4,35.5-48,77.7S32.9,184,32.9,184s21.1,1,37.8-10.2c0,0,34.9,12.5,62.9-1.6
		s38.1-32.6,38.1-32.6s3.7-7.8,3.7-9.7c0-1.8-39.9,0.3-39.9,0.3s-18.8,30.3-48.5,12c0,0-15.1-6.3-16.9-25.3h108.5
		C178.4,117,183.1,84.4,169.6,69.8z M32.9,130.5c0,0,7.3,26.3,31.6,39.1C64.5,169.7-0.2,203.8,32.9,130.5z M138.8,95H69.9
		c6-33,34.4-32.3,34.4-32.3C140.9,68.4,138.8,95,138.8,95z M131.2,32.2C191.5,9.5,165.9,64,165.9,64
		C158.9,47.6,131.2,32.2,131.2,32.2z"/>
	<path class="st1" d="M168.6,21.2c-4.7-3.2-15.2-6.6-36.6-2.4c0,0-17,6.2-20.9,8c0,0-62.9-4.7-80.4,59.7c0,0,33.1-31.6,37-29.5
		s-6.5,7.8-6.5,7.8s-34.4,35.5-48,77.7S32.9,184,32.9,184s1.3,0.1,3.5,0c11.7-0.6,14.8-2.4,1.4-6.4c-12.9,0.1-22.2-8.9-4.9-47.1
		c0,0,3.4,12.1,13.1,23.9c34.5-2.5,6.3-19.6,26-29.3c-1-2.6-1.7-4.1-2.1-8.1h48.5c7.9-5-3.7-13,1.8-22H69.9
		c6-33,34.4-31.8,34.4-31.8c12.8,1.9,24.8,10,29.2,15.8c6.4-15,19.5-22.5,21.2-29.9c-2.6-3.1-20.7-16.4-23.4-17.2
		c8.8-3.3,17.9-4.9,23.4-5.3C168.1,26.9,170.9,24.4,168.6,21.2z"/>
</g>
</svg>
