<?xml version="1.0" encoding="utf-8"?>
<!-- Generator: Adobe Illustrator 19.2.0, SVG Export Plug-In . SVG Version: 6.00 Build 0)  -->
<svg version="1.1" id="Layer_1" xmlns="http://www.w3.org/2000/svg" xmlns:xlink="http://www.w3.org/1999/xlink" x="0px" y="0px"
	 viewBox="0 0 200 200" style="enable-background:new 0 0 200 200;" xml:space="preserve">
<style type="text/css">
	.st0{fill:#020202;}
	.st1{fill:#F900CA;}
	.st2{fill:#141414;}
</style>
<g>
	<g>
		<path class="st0" d="M173.7,105l-10.1,6.3l2.6,65.7h-60l-6.5,8H174v-80H173.7z"/>
		<path class="st0" d="M100,23.7c-41.8,0-75.7,33-75.7,74.8c0,4.9,0.5,9.5,1.4,13.5h13.4c-1.1-4-1.7-8.6-1.7-13.5
			c0-34.6,28-62.1,62.6-62.1c34.5,0,62.6,27.3,62.6,61.9c0,5-0.6,9.7-1.7,13.7h12.6c0.9-4,2.2-8.6,2.2-13.5
			C175.7,56.7,141.8,23.7,100,23.7z"/>
		<path class="st1" d="M99.7,30.9C63.3,43.2,30.1,55.4,24.3,96.6c-0.7,4.9,3.1,11.4,4,15.4h10.8c-1.1-4-2-8.5-2-13.4
			c0-34.6,28-62.1,62.6-62.1c34.5,0,62.6,27.5,62.6,62.1c0,5-0.3,9.8-1.4,13.9l10.8-0.2c0.9-4.2,5.4-8.9,3.7-13.5
			C156.4,47.4,125.8,22.1,99.7,30.9z"/>
		<path class="st2" d="M64.6,145.1H45.3c-3.3,0-6-2.7-6-6v-25.3c0-3.7,3-6.6,6.6-6.6h18.7V145.1z"/>
		<path class="st0" d="M134.4,145.1h19.3c3.3,0,6-2.7,6-6v-25.3c0-3.7-3-6.6-6.6-6.6h-18.7V145.1z"/>
	</g>
	<ellipse class="st0" cx="97.2" cy="180.5" rx="11.3" ry="7.8"/>
</g>
</svg>
