<?xml version="1.0" encoding="utf-8"?>
<!-- Generator: Adobe Illustrator 19.2.0, SVG Export Plug-In . SVG Version: 6.00 Build 0)  -->
<svg version="1.1" id="Layer_1" xmlns="http://www.w3.org/2000/svg" xmlns:xlink="http://www.w3.org/1999/xlink" x="0px" y="0px"
	 viewBox="0 0 200 100" style="enable-background:new 0 0 200 100;" xml:space="preserve">
<style type="text/css">
	.st0{fill:#FFFFFF;}
	.st1{fill:#00D8A7;}
</style>
<g>
	<path d="M2,15.2L2,15.2C2,15.2,2,15.2,2,15.2z"/>
	<path class="st0" d="M36.1,45.6C34.6,9.6,4,14.9,2,15.2V82C2,82,37.9,89,36.1,45.6z M7,71.9V25.2c0,0,0.2,0,0.1,0
		C7.8,25,29.9,21.4,31,46.5C32.3,76.8,7,71.9,7,71.9z"/>
	<path class="st0" d="M162.7,48c0,0,1.3,0,1.3,0v-6.6c-7-0.3-17.4,1.1-18.2,19.3C144.9,81.5,157,83.9,164,83.8v-6.6
		c0,0-17.7,3.1-16.9-15.9C147.8,45.5,162.3,47.8,162.7,48z"/>
	<rect x="45.9" y="42.7" class="st0" width="7.4" height="39.7"/>
	<circle class="st0" cx="49.6" cy="31.3" r="6.4"/>
	<rect x="128.1" y="42.7" class="st0" width="7.4" height="39.7"/>
	<circle class="st0" cx="131.8" cy="31.3" r="6.4"/>
	<polygon class="st1" points="74.6,15.2 98.4,82.4 123.4,15.2 104.8,25 99,66.1 	"/>
	<polygon class="st0" points="176,41.1 176,85 198,85 198,79 182.8,79 182.2,66.7 198.7,64.5 182,59.2 185.7,47 198.3,47 	"/>
</g>
</svg>
