<?xml version="1.0" encoding="utf-8"?>
<!-- Generator: Adobe Illustrator 19.2.0, SVG Export Plug-In . SVG Version: 6.00 Build 0)  -->
<svg version="1.1" id="Layer_1" xmlns="http://www.w3.org/2000/svg" xmlns:xlink="http://www.w3.org/1999/xlink" x="0px" y="0px"
	 viewBox="0 0 200 200" style="enable-background:new 0 0 200 200;" xml:space="preserve">
<style type="text/css">
	.st0{fill:#03ECB7;}
	.st1{fill:#3A3A3A;}
</style>
<path class="st0" d="M183.9,46.9L155.5,75l-23.4-2.8l-4.5-22.8l27.8-30.6c-78-17.3-62.4,60.1-62.4,60.1L13,159.7
	c-0.2,0.3-0.5,0.6-0.8,0.9c-0.1,1.1-0.3,2.3-0.4,3.6C7.3,199.2,42.4,192,42.4,192l81.3-80.2C211.7,121.3,183.9,46.9,183.9,46.9z"/>
<path class="st1" d="M127.6,49.4l4.2,21.6l-115,115c-4-4.2-6.4-11-5-21.9c0.2-1.3,0.3-2.5,0.5-3.7l80.8-81.5
	c0,0-15.6-77.4,62.4-60.1L127.6,49.4z"/>
</svg>
