<?xml version="1.0" encoding="utf-8"?>
<!-- Generator: Adobe Illustrator 19.2.0, SVG Export Plug-In . SVG Version: 6.00 Build 0)  -->
<svg version="1.1" id="Layer_1" xmlns="http://www.w3.org/2000/svg" xmlns:xlink="http://www.w3.org/1999/xlink" x="0px" y="0px"
	 viewBox="0 0 200 100" style="enable-background:new 0 0 200 100;" xml:space="preserve">
<style type="text/css">
	.st0{fill:#6AA9FF;}
	.st1{fill:#A8EBFA;}
	.st2{fill:#FF5B5B;}
	.st3{fill:#FF9F00;}
	.st4{fill:#2682FF;}
	.st5{fill:#76E2F8;}
	.st6{fill:#FF3636;}
</style>
<path class="st0" d="M102.8,49.8L99,53.7L69.7,84.3c-0.8-1.1-1.2-2.5-1.2-3.9V19.6c0-1.5,0.5-3,1.4-4.1L99,45.9L102.8,49.8z"/>
<path class="st1" d="M116.6,35.4l-10.7,11.2L99,39.6L73.5,12.9c1.8-0.5,3.6-0.3,5.3,0.7L99,25.3L116.6,35.4z"/>
<path class="st2" d="M116.8,64.4L99,74.7L78.8,86.4c-1.1,0.6-2.3,0.9-3.4,0.9c-0.7,0-1.5-0.1-2.2-0.4L99,60l6.8-7.1L116.8,64.4z"/>
<path class="st3" d="M131.5,44l-11-6.4l-11.6,12.1l11.9,12.4l10.8-6.2c2.2-1.2,3.4-3.5,3.4-6C134.9,47.5,133.7,45.3,131.5,44z"/>
<path class="st4" d="M102.8,49.8L99,53.7v-7.8L102.8,49.8z"/>
<path class="st5" d="M105.8,46.6L99,39.6V25.3l17.5,10.1L105.8,46.6z"/>
<path class="st6" d="M116.8,64.4L99,74.7V60l6.8-7.1L116.8,64.4z"/>
</svg>
